<svg width="622" height="809" viewBox="0 0 622 809" fill="none" xmlns="http://www.w3.org/2000/svg">
<path d="M305.669 592.389C303.648 592.641 301.628 593.147 299.354 593.399C298.849 593.399 298.596 593.399 298.091 593.399C295.059 593.652 291.775 593.905 288.491 593.905C286.218 593.905 283.944 593.905 281.923 593.905C277.629 593.652 273.334 592.894 269.292 591.884C239.231 585.821 221.547 568.39 210.937 550.454C201.338 534.034 197.801 516.856 196.285 507.761C196.285 506.498 195.78 505.235 195.78 503.972C195.78 501.951 195.527 499.93 195.527 497.909V-7.0769L121.005 28.5424L62.9022 56.3306C24.5041 74.7718 0 113.675 0 156.115V516.856C0 516.856 3.53667 574.958 23.9988 615.125C44.7136 662.87 74.0175 702.531 115.447 732.593C126.562 732.593 137.678 731.582 148.793 730.066C210.685 720.972 267.524 687.879 305.922 638.618C319.311 621.693 329.416 603.251 337.752 583.8C338.51 581.779 339.268 579.758 340.026 577.737C331.184 583.547 319.311 589.105 305.417 591.884L305.669 592.389Z" fill="#0D7CCE" fill-opacity="0.05"/>
<path d="M301.627 608.556C294.807 608.556 288.238 607.546 282.428 606.283C286.47 607.293 290.765 607.799 295.059 608.304C297.333 608.304 299.606 608.304 301.627 608.304V608.556Z" fill="#0D7CCE" fill-opacity="0.05"/>
<path d="M553.236 -72L464.567 -28.0442L442.842 -17.1816C398.886 4.54366 371.098 49.5099 371.098 98.518V505.235C370.845 519.129 369.582 532.771 367.309 546.412C363.519 563.338 358.719 578.747 353.414 592.894C352.657 594.915 351.899 596.936 351.141 598.957C342.805 618.409 332.447 636.85 319.311 653.775C280.913 703.036 223.821 736.129 162.182 745.223C151.066 746.739 139.951 747.75 128.836 747.75C128.836 747.75 128.583 747.75 128.331 747.75C127.573 747.75 127.32 747.75 127.32 747.75C127.573 747.75 127.825 747.75 128.331 747.75C128.331 747.75 128.331 748.002 128.331 748.255C147.277 761.644 168.245 772.759 190.475 780.843C221.547 792.463 255.146 798.526 290.512 797.768C438.042 794.484 554.247 669.69 554.247 522.161V-71.4948C554.247 -71.4948 553.994 -72 553.742 -71.7474L553.236 -72Z" fill="#0D7CCE" fill-opacity="0.05"/>
<path d="M603.508 -40.17L567.636 -22.9919V522.161C567.636 577.99 550.963 630.787 522.164 674.743C522.164 674.743 469.619 777.306 317.037 808.631C321.332 808.631 325.879 808.884 330.173 808.884C503.976 808.884 644.685 661.607 644.685 480.226V-60.127L603.508 -40.4226V-40.17Z" fill="#0D7CCE" fill-opacity="0.05"/>
</svg>
